<?xml version="1.0" encoding="utf-8"?>
<!-- Generator: Adobe Illustrator 16.0.3, SVG Export Plug-In . SVG Version: 6.00 Build 0)  -->
<!DOCTYPE svg PUBLIC "-//W3C//DTD SVG 1.1//EN" "http://www.w3.org/Graphics/SVG/1.1/DTD/svg11.dtd">
<svg version="1.1" id="Layer_1" xmlns="http://www.w3.org/2000/svg" xmlns:xlink="http://www.w3.org/1999/xlink" x="0px" y="0px"
	 width="400px" height="400px" viewBox="0 0 400 400" enable-background="new 0 0 400 400" xml:space="preserve">
<g>
	<g>
		<circle opacity="0.4" fill="#C8C8C8" cx="200.576" cy="200.15" r="200"/>
		<path fill="#FFFFFF" d="M224.904,85.389c0,12.031-5.164,21.787-11.539,21.787h-25.578c-6.375,0-11.539-9.755-11.539-21.787l0,0
			c0-12.036,5.164-21.792,11.539-21.792h25.578C219.74,63.598,224.904,73.353,224.904,85.389L224.904,85.389z M210.886,233.044
			l-27.497,1.308v4.13L210.886,233.044z M183.389,295.513v28.714c0,11.604,7.693,12.474,17.188,12.474
			c9.489,0,17.185-0.869,17.185-12.474v-37.313L183.389,295.513z M217.761,177.613v-0.021l-34.372-3.664v4.826L217.761,177.613z
			 M217.761,122.137v-14.203c-1.375,0.805-2.852,1.245-4.396,1.245h-25.578c-1.547,0-3.023-0.44-4.398-1.245v11.422L217.761,122.137
			z"/>
		<g>
			<g>
				<path fill="#FFFFFF" d="M294.208,135.603c1.953-2.188,1.158-4.173-1.766-4.409l-179.709-14.548
					c-2.924-0.236-7.27,0.964-9.657,2.668l-20.303,14.493c-2.387,1.704-2.536,4.681-0.33,6.614l21.616,18.944
					c2.206,1.933,6.397,3.77,9.314,4.081l175.13,18.676c2.917,0.311,3.914-1.391,2.216-3.783l-12.267-17.272
					c-1.698-2.392-1.49-6.139,0.463-8.327L294.208,135.603z"/>
			</g>
			<g>
				<path fill="#FFFFFF" d="M310.984,181.455c-2.052-2.096-6.13-3.731-9.062-3.634l-2.379,0.079
					c-2.932,0.097-4.871,0.824-4.31,1.614c0.563,0.791,1.354,2.443,1.759,3.672c0,0,0,0-0.597,1.016
					c-0.542,0.927-1.531,1.484-2.589,1.484c-0.104,0-0.104,0-0.104,0c-0.117-0.009-2.601-0.27-5.518-0.581l-43.525-4.643
					c-2.917-0.311-7.702-0.486-10.634-0.389l-144.425,4.795c-2.932,0.097-3.864,2.076-2.07,4.397l12.313,15.943
					c1.793,2.321,1.966,6.241,0.383,8.712L88.971,231.49c-1.583,2.471-0.479,4.377,2.45,4.237l208.682-9.939
					c2.93-0.14,7.126-1.843,9.325-3.784l18.131-16.013c2.199-1.941,2.318-5.245,0.267-7.341L310.984,181.455z"/>
			</g>
			<g>
				<path fill="#FFFFFF" d="M293.462,233.947c1.113-2.714-0.374-4.82-3.304-4.681l-53.575,2.55c-2.93,0.14-7.682,0.72-10.56,1.289
					l-98.905,19.565c-2.877,0.569-6.801,2.852-8.718,5.071l-21.716,25.146c-1.917,2.22-1.42,5.258,1.105,6.751l24.157,14.283
					c2.525,1.493,6.919,2.133,9.765,1.421l171.066-42.781c2.846-0.712,3.663-3.159,1.817-5.438l-10.342-12.773
					c-1.846-2.279-2.446-6.365-1.333-9.079L293.462,233.947z"/>
			</g>
		</g>
	</g>
</g>
</svg>
